<?xml version="1.0" encoding="UTF-8"?>
<svg width="192" height="192" viewBox="0 0 192 192" fill="none" xmlns="http://www.w3.org/2000/svg">
  <rect width="192" height="192" rx="96" fill="#A855F7"/>
  <path d="M96 58C75.0132 58 58 75.0132 58 96C58 116.987 75.0132 134 96 134C116.987 134 134 116.987 134 96C134 75.0132 116.987 58 96 58ZM96 126C79.4315 126 66 112.569 66 96C66 79.4315 79.4315 66 96 66C112.569 66 126 79.4315 126 96C126 112.569 112.569 126 96 126Z" fill="white"/>
  <path d="M96 74C83.8497 74 74 83.8497 74 96C74 108.15 83.8497 118 96 118C108.15 118 118 108.15 118 96C118 83.8497 108.15 74 96 74ZM96 110C88.2681 110 82 103.732 82 96C82 88.2681 88.2681 82 96 82C103.732 82 110 88.2681 110 96C110 103.732 103.732 110 96 110Z" fill="white"/>
  <circle cx="96" cy="96" r="8" fill="white"/>
</svg>
