<?xml version="1.0" encoding="UTF-8"?>
<svg width="512" height="512" viewBox="0 0 512 512" fill="none" xmlns="http://www.w3.org/2000/svg">
  <rect width="512" height="512" rx="256" fill="#A855F7"/>
  <path d="M256 154.667C200.035 154.667 154.667 200.035 154.667 256C154.667 311.965 200.035 357.333 256 357.333C311.965 357.333 357.333 311.965 357.333 256C357.333 200.035 311.965 154.667 256 154.667ZM256 336C211.817 336 176 300.183 176 256C176 211.817 211.817 176 256 176C300.183 176 336 211.817 336 256C336 300.183 300.183 336 256 336Z" fill="white"/>
  <path d="M256 197.333C223.599 197.333 197.333 223.599 197.333 256C197.333 288.401 223.599 314.667 256 314.667C288.401 314.667 314.667 288.401 314.667 256C314.667 223.599 288.401 197.333 256 197.333ZM256 293.333C235.381 293.333 218.667 276.619 218.667 256C218.667 235.381 235.381 218.667 256 218.667C276.619 218.667 293.333 235.381 293.333 256C293.333 276.619 276.619 293.333 256 293.333Z" fill="white"/>
  <circle cx="256" cy="256" r="21.3333" fill="white"/>
</svg>
